<svg width="197" height="346" viewBox="0 0 197 346" fill="none" xmlns="http://www.w3.org/2000/svg">
<g opacity="0.1">
<g opacity="0.8">
<path d="M-34.4912 344.688C-15.2522 330.74 -0.677657 314.612 9.11914 301.902C14.0837 295.462 17.8201 289.902 20.3145 285.954C21.5616 283.98 22.4979 282.409 23.1221 281.333C23.4341 280.795 23.6686 280.381 23.8242 280.102C23.902 279.962 23.9604 279.856 23.999 279.785C24.0182 279.75 24.0325 279.724 24.042 279.706C24.0445 279.701 24.046 279.697 24.0479 279.693C26.9804 273.382 29.9766 267.392 33.0049 261.718L34.3057 259.304C53.1339 224.662 81.2925 193.086 116.469 165.815L118.149 164.52C163.308 129.904 182.704 101.189 190.822 81.1758C194.881 71.1694 196.124 63.3325 196.356 58.0117C196.473 55.3509 196.337 53.3172 196.173 51.9551C196.091 51.2744 196.002 50.7612 195.935 50.4209C195.901 50.2507 195.872 50.123 195.853 50.04C195.843 49.9989 195.835 49.9686 195.83 49.9492C195.828 49.9395 195.826 49.9319 195.825 49.9277L195.823 49.9238V49.9209C191.37 33.2801 174.873 21.9837 152.373 14.4424C129.902 6.91082 101.606 3.18116 73.8398 1.56152C46.0803 -0.0577206 18.8816 0.433637 -1.37988 1.33008C-11.5098 1.77827 -19.9045 2.32734 -25.7656 2.76465C-28.6961 2.98329 -30.9935 3.17463 -32.5576 3.31055C-33.3397 3.37851 -33.9387 3.43245 -34.3418 3.46973C-34.395 3.47465 -34.4448 3.47908 -34.4912 3.4834L-34.4912 344.688Z" fill="url(#paint0_linear_166_705)" stroke="#FDBEB6"/>
</g>
</g>
<defs>
<linearGradient id="paint0_linear_166_705" x1="80.95" y1="0" x2="80.95" y2="345.668" gradientUnits="userSpaceOnUse">
<stop offset="0.27" stop-color="#FDCFC8"/>
<stop offset="0.855769" stop-color="#E24531"/>
</linearGradient>
</defs>
</svg>
