<svg width="243" height="301" viewBox="0 0 243 301" fill="none" xmlns="http://www.w3.org/2000/svg">
<g opacity="0.1">
<g opacity="0.8">
<path d="M273.695 299.586C256.388 287.484 243.275 273.5 234.456 262.478C229.981 256.884 226.613 252.055 224.365 248.627C223.241 246.913 222.397 245.549 221.835 244.615C221.554 244.149 221.343 243.789 221.203 243.547C221.133 243.426 221.081 243.334 221.046 243.272C221.029 243.242 221.015 243.218 221.007 243.203C221.005 243.2 221.003 243.196 221.002 243.193C218.358 237.71 215.656 232.506 212.926 227.577L211.753 225.479C194.771 195.375 169.375 167.938 137.653 144.243L136.138 143.117C95.4245 113.048 77.9456 88.1111 70.6318 70.7402C66.9752 62.0553 65.8575 55.2561 65.6484 50.6436C65.5439 48.3367 65.6663 46.5745 65.8135 45.3955C65.887 44.8062 65.9669 44.362 66.0273 44.0684C66.0576 43.9217 66.0831 43.8123 66.1006 43.7412C66.1093 43.7057 66.1158 43.6795 66.1201 43.6631C66.1223 43.655 66.1241 43.6489 66.125 43.6455L66.126 43.6426V43.6396C70.1312 29.2207 84.9764 19.4129 105.267 12.8604C125.523 6.31872 151.034 3.07888 176.068 1.67187C201.097 0.265239 225.62 0.691945 243.889 1.4707C253.022 1.86005 260.591 2.33789 265.875 2.71777C268.517 2.90769 270.588 3.07334 271.998 3.19141C272.703 3.25042 273.243 3.2977 273.606 3.33008C273.637 3.33282 273.667 3.33536 273.695 3.33789L273.695 299.586Z" fill="#3A72B7" stroke="#3A72B7"/>
<path d="M262.625 25.2261C262.625 25.2261 154.996 16.2125 89.4658 40.2456C89.4658 40.2456 -3.91361 67.2864 60.526 112.685C60.526 112.685 105.85 140.393 143.524 160.421C143.524 160.421 223.358 202.481 262.625 281.929" stroke="#3A72B7" stroke-miterlimit="10"/>
<path d="M273.422 13.855C273.422 13.855 1.0014 9.05885 1.0014 78.962C1.0014 78.962 0.523108 89.4669 22.9644 108.525C35.7595 119.394 51.3528 128.938 68.9869 136.914C109.812 155.38 222.791 211.535 273.422 287.987" stroke="#3A72B7" stroke-miterlimit="10"/>
</g>
</g>
</svg>
