<svg width="269" height="334" viewBox="0 0 269 334" fill="none" xmlns="http://www.w3.org/2000/svg">
<g opacity="0.1">
<g opacity="0.8">
<path d="M-34.4912 332.257C-15.249 318.818 -0.673195 303.277 9.12402 291.031C14.0884 284.826 17.8252 279.469 20.3193 275.666C21.5663 273.765 22.503 272.251 23.127 271.215C23.4389 270.697 23.6726 270.297 23.8281 270.028C23.9059 269.894 23.9643 269.792 24.0029 269.724C24.0221 269.69 24.0364 269.664 24.0459 269.647C24.0474 269.645 24.0486 269.642 24.0498 269.64C26.9831 263.557 29.9797 257.783 33.0088 252.315L34.3096 249.99C53.1397 216.61 81.3001 186.185 116.477 159.91L118.156 158.662C163.315 125.31 182.709 97.6443 190.825 78.3672C194.883 68.7295 196.124 61.1827 196.356 56.0605C196.473 53.499 196.336 51.542 196.173 50.2314C196.091 49.5761 196.003 49.082 195.936 48.7549C195.902 48.5913 195.873 48.4692 195.854 48.3896C195.844 48.3502 195.836 48.3212 195.831 48.3027C195.829 48.2935 195.827 48.2862 195.826 48.2822C195.826 48.2804 195.825 48.2789 195.825 48.2783V48.2793L195.824 48.2754L195.606 47.5283C190.857 31.9162 174.533 21.2571 152.379 14.1025C129.906 6.84525 101.608 3.25098 73.8408 1.69043C46.0804 0.130255 18.881 0.60404 -1.38086 1.46777C-11.5111 1.89962 -19.9062 2.42923 -25.7676 2.85059C-28.698 3.06125 -30.9954 3.24502 -32.5596 3.37598C-33.3416 3.44145 -33.9407 3.49339 -34.3438 3.5293C-34.3962 3.53397 -34.4454 3.53885 -34.4912 3.54297L-34.4912 332.257Z" fill="#3A72B7" stroke="#3A72B7"/>
<path d="M-22.1562 27.8677C-22.1562 27.8677 97.2117 17.8709 169.889 44.5254C169.889 44.5254 273.454 74.5155 201.986 124.866C201.986 124.866 151.718 155.596 109.935 177.808C109.935 177.808 21.3938 224.456 -22.1562 312.569" stroke="#3A72B7" stroke-miterlimit="10"/>
<path d="M-34.1328 15.261C-34.1328 15.261 268.001 9.94179 268.001 87.4693C268.001 87.4693 268.531 99.1199 243.642 120.257C229.451 132.311 212.157 142.896 192.6 151.742C147.322 172.222 22.0198 234.502 -34.1328 319.293" stroke="#3A72B7" stroke-miterlimit="10"/>
</g>
</g>
</svg>
