<svg width="200" height="410" viewBox="0 0 200 410" fill="none" xmlns="http://www.w3.org/2000/svg">
<g opacity="0.1">
<g opacity="0.8">
<path d="M301.414 399.626C287.078 382.36 277.841 364.085 272.176 350.056C269.305 342.945 267.352 336.928 266.117 332.69C265.5 330.572 265.061 328.898 264.778 327.755C264.637 327.184 264.534 326.745 264.467 326.45C264.433 326.302 264.408 326.191 264.392 326.116C264.383 326.079 264.378 326.051 264.374 326.032C264.372 326.023 264.371 326.017 264.37 326.012C263.406 319.472 262.288 313.218 261.046 307.252L260.506 304.71C252.598 268.197 234.865 232.49 209.159 199.258L207.929 197.677C174.814 155.384 164.634 124.285 162.706 103.802C161.742 93.5605 162.841 85.9667 164.171 80.9463C164.836 78.4358 165.56 76.5669 166.114 75.3311C166.391 74.7133 166.626 74.2534 166.79 73.9506C166.872 73.7993 166.936 73.6869 166.979 73.6138C167 73.5772 167.016 73.5499 167.027 73.5329C167.032 73.5245 167.036 73.5183 167.038 73.5147L167.041 73.5112L167.042 73.5086L167.477 72.8322C176.757 58.7359 195.611 52.0029 218.975 49.9518C242.678 47.8708 270.848 50.6261 297.894 55.2354C324.935 59.8436 350.822 66.3001 369.952 71.6051C379.516 74.2573 387.39 76.6209 392.871 78.3218C395.612 79.1722 397.755 79.8568 399.212 80.3287C399.941 80.5646 400.499 80.7474 400.873 80.871C400.92 80.8864 400.964 80.9007 401.005 80.9143L301.414 399.626Z" fill="#3A72B7" stroke="#3A72B7"/>
<path d="M381.876 101.583C381.876 101.583 270.512 65.5422 192.774 75.3675C192.774 75.3675 84.4234 81.6139 137.64 146.24C137.64 146.24 176.493 187.15 209.797 217.922C209.797 217.922 280.5 282.723 295.505 377.831" stroke="#3A72B7" stroke-miterlimit="10"/>
<path d="M397.199 91.8682C397.199 91.8682 109.045 19.9984 85.5081 95.2631C85.5081 95.2631 81.4622 106.457 98.9153 132.472C108.866 147.307 122.238 161.401 138.31 174.307C175.517 204.186 276.783 292.313 304.895 387.026" stroke="#3A72B7" stroke-miterlimit="10"/>
</g>
</g>
</svg>
