<svg width="36" height="36" viewBox="0 0 36 36" fill="none" xmlns="http://www.w3.org/2000/svg">
<g clip-path="url(#clip0_257_119)">
<path d="M18 21.6914C20.0387 21.6914 21.6914 20.0387 21.6914 18C21.6914 15.9613 20.0387 14.3086 18 14.3086C15.9613 14.3086 14.3086 15.9613 14.3086 18C14.3086 20.0387 15.9613 21.6914 18 21.6914Z" fill="#2D2D2D"/>
<path d="M18 0.421875C8.29188 0.421875 0.421875 8.29188 0.421875 18C0.421875 27.7081 8.29188 35.5781 18 35.5781C27.7081 35.5781 35.5781 27.7081 35.5781 18C35.5781 8.29188 27.7081 0.421875 18 0.421875ZM28.8603 22.4677C28.776 24.1388 28.3063 25.7868 27.0885 26.9918C25.8588 28.2082 24.203 28.6614 22.5157 28.7449H13.4844C11.7969 28.6614 10.1413 28.2085 8.91162 26.9918C7.69366 25.7868 7.22412 24.1388 7.13974 22.4677V13.5323C7.22412 11.8612 7.69373 10.2132 8.91162 9.00816C10.1413 7.79175 11.7971 7.33852 13.4844 7.25505H22.5156C24.2031 7.33852 25.8587 7.79154 27.0884 9.00816C28.3063 10.2132 28.7759 11.8612 28.8603 13.5323L28.8603 22.4677Z" fill="#2D2D2D"/>
<path d="M22.4016 9.29085C20.2018 9.23052 15.7989 9.23052 13.5991 9.29085C12.4543 9.32228 11.1565 9.60726 10.3409 10.4784C9.49337 11.384 9.17309 12.478 9.14061 13.702C9.08352 15.8502 9.14061 22.2978 9.14061 22.2978C9.1778 23.5216 9.49337 24.6158 10.3409 25.5214C11.1565 26.3928 12.4543 26.6775 13.5991 26.7089C15.7989 26.7693 20.2018 26.7693 22.4016 26.7089C23.5464 26.6775 24.8441 26.3925 25.6598 25.5214C26.5073 24.6158 26.8276 23.5218 26.8601 22.2978V13.702C26.8276 12.478 26.5073 11.384 25.6598 10.4784C24.8439 9.60698 23.5461 9.32228 22.4016 9.29085ZM18.0001 23.7216C16.8684 23.7216 15.7622 23.386 14.8213 22.7573C13.8803 22.1286 13.147 21.235 12.7139 20.1895C12.2809 19.144 12.1675 17.9936 12.3883 16.8837C12.6091 15.7738 13.154 14.7543 13.9542 13.9541C14.7544 13.1539 15.7739 12.6089 16.8838 12.3882C17.9937 12.1674 19.1441 12.2807 20.1896 12.7138C21.2351 13.1468 22.1288 13.8802 22.7575 14.8211C23.3862 15.762 23.7217 16.8683 23.7217 17.9999C23.7217 19.5174 23.1189 20.9727 22.0459 22.0457C20.9729 23.1188 19.5175 23.7216 18.0001 23.7216ZM23.7461 13.4593C23.5197 13.4592 23.2985 13.392 23.1104 13.2663C22.9222 13.1405 22.7756 12.9618 22.689 12.7526C22.6025 12.5435 22.5798 12.3135 22.624 12.0915C22.6682 11.8695 22.7772 11.6657 22.9373 11.5057C23.0973 11.3456 23.3012 11.2367 23.5232 11.1926C23.7452 11.1484 23.9752 11.1711 24.1843 11.2577C24.3934 11.3443 24.5721 11.491 24.6978 11.6792C24.8236 11.8674 24.8907 12.0886 24.8907 12.3149C24.8907 12.4652 24.8611 12.614 24.8035 12.7529C24.746 12.8918 24.6617 13.0179 24.5554 13.1242C24.4491 13.2305 24.3229 13.3147 24.1841 13.3722C24.0452 13.4297 23.8964 13.4593 23.7461 13.4593Z" fill="#2D2D2D"/>
</g>
<defs>
<clipPath id="clip0_257_119">
<rect width="36" height="36" fill="white"/>
</clipPath>
</defs>
</svg>
