<svg width="180" height="286" viewBox="0 0 180 286" fill="none" xmlns="http://www.w3.org/2000/svg">
<g opacity="0.1">
<g opacity="0.8">
<path d="M-80.4922 284.984C-64.0431 273.476 -51.5783 260.182 -43.1934 249.701C-38.9351 244.379 -35.7299 239.784 -33.5908 236.522C-32.5214 234.892 -31.7186 233.594 -31.1836 232.705C-30.9161 232.261 -30.7153 231.918 -30.582 231.688C-30.5154 231.572 -30.4656 231.485 -30.4326 231.427C-30.4161 231.398 -30.4036 231.376 -30.3955 231.361C-30.3927 231.356 -30.3914 231.352 -30.3896 231.349C-27.8737 226.132 -25.3023 221.18 -22.7041 216.49L-21.5879 214.494C-5.42424 185.841 18.7468 159.727 48.9375 137.176L50.3799 136.104C89.1233 107.49 105.754 83.7607 112.712 67.2344C116.191 58.9718 117.254 52.504 117.453 48.1172C117.553 45.9236 117.436 44.2486 117.296 43.1279C117.226 42.5675 117.15 42.1451 117.093 41.8662C117.064 41.7268 117.04 41.6231 117.023 41.5557C117.015 41.522 117.009 41.4969 117.005 41.4814C117.003 41.4741 117.001 41.469 117 41.4658C117 41.4645 116.999 41.4634 116.999 41.4629V41.46L116.812 40.8203C112.748 27.4594 98.7724 18.3226 79.7656 12.1846C60.4907 5.95995 36.2149 2.87705 12.3906 1.53809C-11.4271 0.199504 -34.7644 0.605576 -52.1494 1.34668C-60.841 1.7172 -68.0434 2.17072 -73.0723 2.53223C-75.5865 2.71297 -77.5574 2.87105 -78.8994 2.9834C-79.5704 3.03958 -80.0849 3.08443 -80.4307 3.11523C-80.4518 3.11712 -80.4723 3.11932 -80.4922 3.12109L-80.4922 284.984Z" fill="#3A72B7" stroke="#3A72B7"/>
<path d="M-69.9766 23.9274C-69.9766 23.9274 32.4514 15.3493 94.8152 38.2211C94.8152 38.2211 183.682 63.9552 122.357 107.16C122.357 107.16 79.2224 133.529 43.3693 152.589C43.3693 152.589 -32.6069 192.617 -69.9766 268.226" stroke="#3A72B7" stroke-miterlimit="10"/>
<path d="M-80.2578 13.1133C-80.2578 13.1133 178.999 8.54895 178.999 75.0742C178.999 75.0742 179.454 85.0715 158.097 103.209C145.92 113.553 131.08 122.635 114.298 130.226C75.4463 147.799 -32.074 201.241 -80.2578 273.999" stroke="#3A72B7" stroke-miterlimit="10"/>
</g>
</g>
</svg>
