<svg width="243" height="328" viewBox="0 0 243 328" fill="none" xmlns="http://www.w3.org/2000/svg">
<g opacity="0.1">
<g opacity="0.8">
<path d="M297.866 326.458C278.989 313.272 264.69 298.025 255.077 286.01C250.205 279.92 246.538 274.663 244.091 270.931C242.867 269.065 241.948 267.58 241.336 266.562C241.03 266.054 240.8 265.662 240.647 265.398C240.571 265.267 240.514 265.166 240.477 265.1C240.458 265.066 240.443 265.041 240.434 265.024C240.429 265.016 240.426 265.01 240.424 265.006C237.547 259.04 234.609 253.378 231.638 248.015L230.36 245.732C211.879 212.971 184.242 183.11 149.718 157.322L148.068 156.098C103.749 123.366 84.7179 96.216 76.7529 77.2988C72.7708 67.8408 71.5521 60.4342 71.3242 55.4082C71.2103 52.895 71.3444 50.9751 71.5049 49.6895C71.5851 49.0465 71.6722 48.562 71.7383 48.2412C71.7713 48.0808 71.7982 47.9608 71.8174 47.8828C71.8269 47.8442 71.835 47.8159 71.8398 47.7979L71.8457 47.7744L71.8467 47.7715L72.0596 47.0381C76.7194 31.7205 92.7369 21.2608 114.479 14.2393C136.534 7.11721 164.305 3.59015 191.556 2.05859C218.8 0.527406 245.495 0.992156 265.38 1.83984C275.322 2.26366 283.561 2.78277 289.313 3.19629C292.189 3.40302 294.443 3.5834 295.979 3.71191C296.746 3.77616 297.334 3.82804 297.729 3.86328C297.778 3.86759 297.824 3.87215 297.866 3.87598L297.866 326.458Z" fill="#3A72B7" stroke="#3A72B7"/>
<path d="M285.789 27.7281C285.789 27.7281 168.638 17.917 97.3101 44.0764C97.3101 44.0764 -4.33084 73.5096 65.8099 122.925C65.8099 122.925 115.144 153.084 156.151 174.884C156.151 174.884 243.048 220.665 285.789 307.142" stroke="#3A72B7" stroke-miterlimit="10"/>
<path d="M297.523 15.3807C297.523 15.3807 1.00134 10.1602 1.00134 86.2479C1.00134 86.2479 0.480731 97.6822 24.9074 118.427C38.8346 130.257 55.8074 140.645 75.0017 149.327C119.438 169.426 242.414 230.55 297.523 313.766" stroke="#3A72B7" stroke-miterlimit="10"/>
</g>
</g>
</svg>
