<svg width="22" height="22" viewBox="0 0 22 22" fill="none" xmlns="http://www.w3.org/2000/svg">
<path d="M10.293 0.960703C10.6591 0.594587 11.2381 0.571993 11.6309 0.892344L11.707 0.960703L21.04 10.2937C21.0449 10.2986 21.0489 10.3044 21.0537 10.3093C21.0675 10.3236 21.0809 10.3382 21.0938 10.3533C21.1014 10.3623 21.1089 10.3714 21.1162 10.3806C21.1496 10.4227 21.1797 10.4673 21.2061 10.5144C21.2117 10.5245 21.2174 10.5345 21.2227 10.5447C21.293 10.6815 21.3339 10.8363 21.334 11.0007C21.334 11.2743 21.2221 11.5213 21.0439 11.7019C21.0423 11.7035 21.0417 11.7062 21.04 11.7078L11.707 21.0418C11.3166 21.432 10.6834 21.432 10.293 21.0418C9.90251 20.6513 9.90265 20.0182 10.293 19.6277L17.9189 12.0007H1.66699C1.11471 12.0007 0.666992 11.553 0.666992 11.0007C0.667206 10.4486 1.11484 10.0007 1.66699 10.0007H17.9189L10.293 2.37477L10.2246 2.29859C9.90427 1.90584 9.9269 1.32682 10.293 0.960703Z" fill="#002D72"/>
</svg>
