<svg width="36" height="36" viewBox="0 0 36 36" fill="none" xmlns="http://www.w3.org/2000/svg">
<g clip-path="url(#clip0_257_126)">
<path d="M15.7579 21.3723L21.6131 18.0001L15.7579 14.6279V21.3723Z" fill="#2D2D2D"/>
<path d="M18 0C8.06041 0 0 8.06041 0 18C0 27.9396 8.06041 36 18 36C27.9396 36 36 27.9396 36 18C36 8.06041 27.9396 0 18 0ZM29.2472 18.0184C29.2472 18.0184 29.2472 21.6689 28.7842 23.4292C28.5247 24.3927 27.7649 25.1524 26.8014 25.4116C25.0412 25.875 18 25.875 18 25.875C18 25.875 10.9773 25.875 9.19856 25.3932C8.23507 25.134 7.47534 24.374 7.21582 23.4105C6.75246 21.6688 6.75246 18 6.75246 18C6.75246 18 6.75246 14.3498 7.21582 12.5895C7.47513 11.626 8.25349 10.8476 9.19863 10.5884C10.9588 10.125 18 10.125 18 10.125C18 10.125 25.0411 10.125 26.8014 10.6068C27.7649 10.866 28.5247 11.626 28.7842 12.5895C29.266 14.3498 29.2473 18.0184 29.2473 18.0184L29.2472 18.0184Z" fill="#2D2D2D"/>
</g>
<defs>
<clipPath id="clip0_257_126">
<rect width="36" height="36" fill="white"/>
</clipPath>
</defs>
</svg>
