<svg width="507" height="251" viewBox="0 0 507 251" fill="none" xmlns="http://www.w3.org/2000/svg">
<path d="M296.5 230.5H506.5" stroke="#B9675C" stroke-width="3"/>
<path d="M0.5 35.5H214.5" stroke="#F5C7C0" stroke-width="3"/>
<rect x="84" y="45" width="261" height="78" fill="#B9675C"/>
<rect x="172" y="133" width="261" height="85" fill="#F5C7C0"/>
<g filter="url(#filter0_d_256_1013)">
<circle cx="88" cy="187" r="54" fill="#B9675C"/>
</g>
<circle cx="286.5" cy="16.5" r="16.5" fill="#B9675C"/>
<circle cx="237" cy="30" r="6" fill="#F5C7C0"/>
<circle cx="14" cy="114" r="6" fill="#F5C7C0"/>
<circle cx="147" cy="148" r="5" fill="#F5C7C0"/>
<path d="M365.5 116V63L388.5 71.5L365.5 116Z" fill="#F5C7C0"/>
<path d="M380.002 114.002L421.297 37.9961L449.116 68.8984L380.002 114.002Z" fill="#B9675C"/>
<path d="M381.999 125.729L426.73 97.5781L432.041 121.931L381.999 125.729Z" fill="#F5C7C0"/>
<circle cx="323" cy="37" r="4" fill="#F5C7C0"/>
<defs>
<filter id="filter0_d_256_1013" x="29" y="133" width="118" height="118" filterUnits="userSpaceOnUse" color-interpolation-filters="sRGB">
<feFlood flood-opacity="0" result="BackgroundImageFix"/>
<feColorMatrix in="SourceAlpha" type="matrix" values="0 0 0 0 0 0 0 0 0 0 0 0 0 0 0 0 0 0 127 0" result="hardAlpha"/>
<feOffset dy="5"/>
<feGaussianBlur stdDeviation="2.5"/>
<feComposite in2="hardAlpha" operator="out"/>
<feColorMatrix type="matrix" values="0 0 0 0 0.72549 0 0 0 0 0.403922 0 0 0 0 0.360784 0 0 0 0.14 0"/>
<feBlend mode="normal" in2="BackgroundImageFix" result="effect1_dropShadow_256_1013"/>
<feBlend mode="normal" in="SourceGraphic" in2="effect1_dropShadow_256_1013" result="shape"/>
</filter>
</defs>
</svg>
